<svg width="318.7271341463414" height="261.35625" viewBox="0 0 350 287" class="css-1j8o68f"><defs id="SvgjsDefs1909"></defs><g id="SvgjsG1910" featurekey="rootContainer" transform="matrix(1,0,0,1,0,0)" fill="#522546"><path xmlns="http://www.w3.org/2000/svg" fill-rule="evenodd" d="M5,65 L175,0 L345, 65 L175, 10 z M5,207 L175,287 L345,202 L175, 277 z"></path></g><g id="SvgjsG1911" featurekey="symbolFeature-0" transform="matrix(-0.107668997742526,0,0,-0.107668997742526,238.1651981186939,135.9915198178249)" fill="#522546"><g xmlns="http://www.w3.org/2000/svg"><path d="M538.2,274.4c-0.3-9.5-0.3-19.2-1.1-28.7c-0.5-5.9-1.4-16.5-9.5-15.3c-13.6,1.2-27.1,0.7-40.7,0.4   c-6.6-0.1-13.3-0.3-19.9-0.3c-6.1,0-12.7-0.1-18.8,1.4c-0.4-0.3-1-0.5-1.7-0.1c-6.3,2.9-5.4,10.2-5.5,16.1   c-0.1,8-0.1,16.1,0.1,24.1c0.2,7.9,0.6,15.7,1.2,23.6c0.6,7.7,0.8,15.9,2.5,23.4c0.1,0.4,0.3,0.7,0.6,0.9c2.9,4.4,8.9,3.3,13.5,2.6   c7.5-1.1,15.1-0.8,22.7-1.1c15.1-0.5,30.2-1.1,45.3-1.6c0.4,0,0.7-0.1,0.9-0.2c0.2,0,0.4,0.1,0.6,0c3-0.4,7.4-0.8,9.1-3.8   c0.8-1.4,0.7-3.1,0.8-4.7c0.1-2.4,0.1-4.8,0.2-7.2C538.5,294,538.4,284.2,538.2,274.4z M534.4,297.6c0,3.8-0.1,7.6-0.2,11.4   c0,1.2,0.3,3.5-0.3,4.6c-0.8,1.5-4.1,1.7-5.6,1.9c-0.2,0-0.5,0.1-0.7,0.2c-0.3-0.1-0.6-0.2-0.9-0.2c-13.6,0.5-27.1,1-40.7,1.5   c-6.7,0.2-13.3,0.5-19.9,0.9c-3.1,0.2-6.2,0.4-9.3,0.9c-1.9,0.4-7.7,2-9-0.6c-0.2-7-1.5-14.1-2.1-21.1c-0.5-7-0.9-14-1.1-21   c-0.3-7-0.4-14-0.4-21c0-3.4,0-6.8,0-10.3c0-2.4-0.9-10.1,3.1-10.1c0.7,0,1.2-0.4,1.4-0.8c6.2,0.1,12.6-0.7,18.8-0.8   c6.6-0.1,13.3,0.1,19.9,0.4c13,0.5,26.3,1,39.3,0c0.3,0.2,0.7,0.3,1.2,0.1c5.9-2.4,5.7,16.9,5.8,19.8c0.3,7.4,0.5,14.8,0.6,22.2   C534.4,282.8,534.4,290.2,534.4,297.6z"></path><path d="M526.1,265.8c-1.9-5.1-4.5-9.7-8.3-13.9c-4.9-5.4-11.2-9.5-18.2-11.6c-15.7-4.7-34,0.9-42.2,15.6   c-7.7,13.7-4.7,32.4,4.8,44.5c10.3,13.1,28.5,16,43.5,9.7c16.6-7.1,26.9-25.6,21.2-43.3C526.6,266.3,526.4,266,526.1,265.8z    M508.7,304.1c-12.5,7.6-29.9,7.7-40.9-2.7c-10-9.6-14-25.9-9.4-39c5-14.5,20.9-21.9,35.5-19.5c12.5,2,24.9,11.4,29.5,23.5   c-0.2,0.4-0.3,0.9-0.2,1.4C527.3,281.6,521,296.5,508.7,304.1z"></path><path d="M509.6,257.7c1.3-1.2-0.7-3.8-2.2-2.2c-1.5,1.6-4.2,2.7-6.1,3.8c-1.9,1.1-3.7,2.3-5.6,3.5   c-3.7,2.3-7.3,4.7-10.9,7.3c-0.3,0.2-0.5,0.5-0.7,0.8c-0.3,0.2-0.6,0.5-0.7,1c-1,4.1-4,8.2-6.1,11.8c-2.1,3.7-4.4,7.3-6.5,10.9   c-0.1,0.1-0.1,0.2-0.1,0.3c-1.3,1.2,0.7,3.8,2.2,2.2c1.5-1.6,4.2-2.7,6.1-3.8c1.9-1.1,3.7-2.3,5.6-3.5c3.7-2.3,7.3-4.7,10.9-7.3   c0.3-0.2,0.5-0.5,0.7-0.8c0.3-0.2,0.6-0.5,0.7-1c1-4.1,4-8.2,6.1-11.8c2.1-3.7,4.4-7.3,6.5-10.9   C509.5,257.9,509.5,257.8,509.6,257.7z M482.9,286.9c-1.7,1.2-3.3,2.3-5,3.4c-0.6,0.4-1.3,0.9-1.9,1.4c1.3-2.2,2.6-4.4,3.8-6.7   c0.9-1.7,1.9-3.4,2.8-5.2c1-1.9,1.8-4.1,3-5.9c2.1,2.1,4,4.4,6.3,6.4c0.1,0.1,0.1,0.1,0.2,0.1C489,282.7,486,284.8,482.9,286.9z    M500.5,267.5c-0.9,1.7-1.9,3.4-2.8,5.2c-1,1.9-1.8,4.1-3,5.9c-2.1-2.1-4-4.4-6.3-6.4c-0.1-0.1-0.1-0.1-0.2-0.1   c3-2.2,6-4.3,9.1-6.5c1.7-1.2,3.3-2.3,5-3.4c0.6-0.4,1.3-0.9,1.9-1.4C503,263,501.7,265.2,500.5,267.5z"></path><path d="M469.4,254.9c0.8,1,1.8,2,2.7,2.9c1.3,1.4,3.4-0.7,2.1-2.1c-0.9-0.9-1.7-2-2.7-2.8   c-0.3-0.9-1.5-1.4-2.4-0.7C468,253,468.4,254.5,469.4,254.9z"></path><path d="M468.4,285.2c-1,0.4-1.8,1.1-2.6,1.7c-1.1,0.1-1.8,1.3-1.2,2.3c0.5,0.9,2.2,1.1,2.7,0c0,0,0,0,0-0.1   c0.8-0.5,1.8-0.9,2.4-1.6c0.4-0.5,0.5-1.1,0.2-1.7C469.7,285.3,469,284.9,468.4,285.2z"></path><path d="M501.8,254.1c0.7-1,1.5-2.1,2-3.2c0.9-0.6,1.1-2,0-2.7c-1.1-0.6-2.1,0.1-2.3,1.1c-0.8,1-1.5,2.3-2.1,3.4   C498.6,254.3,500.9,255.6,501.8,254.1z"></path><path d="M491.5,253c0.8,0.2,1.6-0.3,1.8-1c0.3-1.1,0.3-2.4,0.6-3.5c0.9-0.9,0.3-2.5-0.9-2.6   c-1.2-0.1-1.9,0.9-1.7,2c-0.1,0.5-0.3,1.1-0.4,1.6c-0.1,0.6-0.3,1.2-0.4,1.8C490.4,252.1,490.7,252.8,491.5,253z"></path><path d="M480.3,251.1c0.2,0.8,0.3,1.5,0.7,2.3c0.5,1.3,2.7,0.6,2.6-0.7c-0.1-0.8-0.3-1.6-0.5-2.4   c-0.2-0.7-0.6-1.6-0.5-2.3c0.1-1-1.1-1.8-2-1.5c-0.9,0.3-1.5,1.4-0.9,2.3C480,249.4,480.1,250.5,480.3,251.1z"></path><path d="M464.1,265.2c0.4,0.1,0.8,0.2,1.3,0.3c0.6,0.2,1.3,0.2,1.8,0.4c1.8,0.7,2.6-2.7,0.4-2.8   c-0.5,0-1.1-0.3-1.6-0.3c-0.4-0.1-0.9-0.2-1.3-0.2c-0.8-0.8-2.3-0.4-2.6,0.7C461.7,264.4,463,265.7,464.1,265.2z"></path><path d="M465.7,273.2c-1.2,0.2-2.4,0.7-3.6,1c-1-0.2-2.1,0.5-1.9,1.7c0.2,1.1,1.7,1.9,2.6,0.9   c1.2-0.3,2.5-0.4,3.7-0.8C468.4,275.5,467.6,272.9,465.7,273.2z"></path><path d="M511.1,295.9c-0.8-1-1.8-2-2.7-2.9c-1.3-1.4-3.4,0.7-2.1,2.1c0.9,0.9,1.7,2,2.7,2.8   c0.3,0.9,1.5,1.4,2.4,0.7C512.5,297.8,512.1,296.3,511.1,295.9z"></path><path d="M512.2,265.6c1-0.4,1.8-1.1,2.6-1.7c1.1-0.1,1.8-1.3,1.2-2.3c-0.5-0.9-2.2-1.1-2.7,0c0,0,0,0,0,0.1   c-0.8,0.5-1.8,0.9-2.4,1.6c-0.4,0.5-0.5,1.1-0.2,1.7C510.9,265.5,511.6,265.8,512.2,265.6z"></path><path d="M478.7,296.7c-0.7,1-1.5,2.1-2,3.2c-0.9,0.6-1.1,2,0,2.7c1.1,0.6,2.1-0.1,2.3-1.1c0.8-1,1.5-2.3,2.1-3.4   C482,296.5,479.7,295.2,478.7,296.7z"></path><path d="M489,297.7c-0.8-0.2-1.6,0.3-1.8,1c-0.3,1.1-0.3,2.4-0.6,3.5c-0.9,0.9-0.3,2.5,0.9,2.6   c1.2,0.1,1.9-0.9,1.7-2c0.1-0.5,0.3-1.1,0.4-1.6c0.1-0.6,0.3-1.2,0.4-1.8C490.1,298.7,489.8,298,489,297.7z"></path><path d="M500.3,299.7c-0.2-0.8-0.3-1.5-0.7-2.3c-0.5-1.3-2.7-0.6-2.6,0.7c0.1,0.8,0.3,1.6,0.5,2.4   c0.2,0.7,0.6,1.6,0.5,2.3c-0.1,1,1.1,1.8,2,1.5c0.9-0.3,1.5-1.4,0.9-2.3C500.5,301.4,500.4,300.3,500.3,299.7z"></path><path d="M516.5,285.6c-0.4-0.1-0.8-0.2-1.3-0.3c-0.6-0.2-1.3-0.2-1.8-0.4c-1.8-0.7-2.6,2.7-0.4,2.8   c0.5,0,1.1,0.3,1.6,0.3c0.4,0.1,0.9,0.2,1.3,0.2c0.8,0.8,2.3,0.4,2.6-0.7C518.8,286.4,517.6,285.1,516.5,285.6z"></path><path d="M517.7,274c-1.2,0.3-2.5,0.4-3.7,0.8c-1.8,0.5-1.1,3.2,0.8,2.8c1.2-0.2,2.4-0.7,3.6-1   c1,0.2,2.1-0.5,1.9-1.7C520.1,273.8,518.6,273,517.7,274z"></path></g><g xmlns="http://www.w3.org/2000/svg"><path d="M850.8,273.5c-0.3-9.5-0.3-19.2-1.1-28.7c-0.5-5.9-1.4-16.5-9.5-15.3c-13.6,1.2-27.1,0.7-40.7,0.4   c-6.6-0.1-13.3-0.3-19.9-0.3c-6.1,0-12.7-0.1-18.8,1.4c-0.4-0.3-1-0.5-1.7-0.1c-6.3,2.9-5.4,10.2-5.5,16.1   c-0.1,8-0.1,16.1,0.1,24.1c0.2,7.9,0.6,15.7,1.2,23.6c0.6,7.7,0.8,15.9,2.5,23.4c0.1,0.4,0.3,0.7,0.6,0.9c2.9,4.4,8.9,3.3,13.5,2.6   c7.5-1.1,15.1-0.8,22.7-1.1c15.1-0.5,30.2-1.1,45.3-1.6c0.4,0,0.7-0.1,0.9-0.2c0.2,0,0.4,0.1,0.6,0c3-0.4,7.4-0.8,9.1-3.8   c0.8-1.4,0.7-3.1,0.8-4.7c0.1-2.4,0.1-4.8,0.2-7.2C851.2,293.1,851.1,283.3,850.8,273.5z M847,296.7c0,3.8-0.1,7.6-0.2,11.4   c0,1.2,0.3,3.5-0.3,4.6c-0.8,1.5-4.1,1.7-5.6,1.9c-0.2,0-0.5,0.1-0.7,0.2c-0.3-0.1-0.6-0.2-0.9-0.2c-13.6,0.5-27.1,1-40.7,1.5   c-6.7,0.2-13.3,0.5-19.9,0.9c-3.1,0.2-6.2,0.4-9.3,0.9c-1.9,0.4-7.7,2-9-0.6c-0.2-7-1.5-14.1-2.1-21.1c-0.5-7-0.9-14-1.1-21   c-0.3-7-0.4-14-0.4-21c0-3.4,0-6.8,0-10.3c0-2.4-0.9-10.1,3.1-10.1c0.7,0,1.2-0.4,1.4-0.8c6.2,0.1,12.6-0.7,18.8-0.8   c6.6-0.1,13.3,0.1,19.9,0.4c13,0.5,26.3,1,39.3,0c0.3,0.2,0.7,0.3,1.2,0.1c5.9-2.4,5.7,16.9,5.8,19.8c0.3,7.4,0.5,14.8,0.6,22.2   C847.1,281.9,847.1,289.3,847,296.7z"></path><path d="M806.2,243.3c-12.6-4.5-27.4-2.3-35.8,8.9c-4.3,5.7-6.1,13.1-4.7,20.1c1.6,7.7,6.8,12.7,11.7,18.3   c0,1.8-1.6,4.4-2.5,5.7c-1.3,2-3,3.6-5,4.9c-1,0.6-1,2.4,0.3,2.7c5.6,1,15.4,0.2,18.6-5.5c5.5,3.1,11.6,4.8,17.9,5.5   c6.7,0.7,14.5,0.8,20.9-1.3c13.5-4.4,14.1-22.2,9.3-33.1C831.7,257,818.7,247.8,806.2,243.3z M836.2,283.7   c-0.2,5.5-2.4,12.1-7.8,14.7c-3.1,1.5-6.9,1.7-10.3,1.9c-3.2,0.2-6.3,0.2-9.5,0c-6.8-0.5-13.4-2.4-19.2-6c-1.5-0.9-2.9,0.5-2.8,1.8   c0,0.1-0.1,0.1-0.1,0.2c-0.8,2.5-4.5,3.8-6.8,4.5c-1.7,0.5-3.4,0.7-5.2,0.7c1-0.9,1.9-2,2.7-3.2c0.7-1.1,1.3-2.2,1.8-3.4   c0.5-1.3,0.5-2.9,1.1-4.1c0.5-1,0.1-1.7-0.6-2.1c0,0,0,0,0,0c-9.8-7.1-15-21.1-8.5-32.1c6.4-11,19.9-13.6,31.4-10.2   c11.1,3.3,22.5,10.8,28.8,20.6C834.4,272,836.4,277.8,836.2,283.7z"></path><path d="M797.9,260.8c-0.2-0.4-0.6-0.8-1.2-0.8c-2.3-0.2-4.7-0.1-7.1-0.1c-2.5,0-5.2,0.4-7.6,0   c-1.5-0.2-2.1,1.1-1.7,2.1c0,0,0,0,0,0c0.6,1.8,0.1,4.6,0.1,6.5c0,1.8-0.1,3.6,0.2,5.4c0.1,0.3,0.2,0.5,0.5,0.7   c0.2,0.6,0.8,1,1.7,0.8c1.5-0.4,3.2-0.1,4.7,0c0.9,0,1.9,0,2.8,0c-0.4,1.5-1.8,3.2-2.7,4c-1.4,1.3-3,2.1-4.6,3.2   c-1.4,0.9-0.3,3,1.1,2.6c4.9,1.8,10.3-2.2,13.1-6.1c1.7-2.3,2-5.1,2.3-7.9c0.4-3.3,0.2-6.5-1-9.6   C798.4,261.2,798.2,261,797.9,260.8z M795.9,276.1c-1.4,3.5-4.8,5.9-8.4,6.8c0.9-0.7,1.8-1.6,2.6-2.4c0.7-0.8,1.4-1.8,1.9-2.8   c0.4-0.8,0.5-1.8,0.8-2.6c0.4-0.3,0.5-0.8,0.5-1.2c0.3-1.3-1.4-1.9-2.4-1.4c-1.1,0-2.3,0-3.4,0.1c-1.4,0-3,0.3-4.4,0   c0.1-1.3,0.1-2.7,0-4c0-1.7-0.4-4-0.1-5.8c2.1-0.1,4.5,0.1,6.6,0.1c2.2,0,4.4,0.1,6.6-0.1C797.5,266.9,797.5,272.2,795.9,276.1z"></path><path d="M819.6,260.8c-0.2-0.4-0.6-0.8-1.2-0.8c-2.3-0.2-4.7-0.1-7.1-0.1c-2.5,0-5.2,0.4-7.6,0   c-1.5-0.2-2.1,1.1-1.7,2.1c0,0,0,0,0,0c0.6,1.8,0.1,4.6,0.1,6.5c0,1.8-0.1,3.6,0.2,5.4c0.1,0.3,0.2,0.5,0.5,0.7   c0.2,0.6,0.8,1,1.7,0.8c1.5-0.4,3.2-0.1,4.7,0c0.9,0,1.9,0,2.8,0c-0.4,1.5-1.8,3.2-2.7,4c-1.4,1.3-3,2.1-4.6,3.2   c-1.4,0.9-0.3,3,1.1,2.6c4.9,1.8,10.3-2.2,13.1-6.1c1.7-2.3,2-5.1,2.3-7.9c0.4-3.3,0.2-6.5-1-9.6   C820.1,261.2,819.9,261,819.6,260.8z M817.6,276.1c-1.4,3.5-4.8,5.9-8.4,6.8c0.9-0.7,1.8-1.6,2.6-2.4c0.7-0.8,1.4-1.8,1.9-2.8   c0.4-0.8,0.5-1.8,0.8-2.6c0.4-0.3,0.5-0.8,0.5-1.2c0.3-1.3-1.4-1.9-2.4-1.4c-1.1,0-2.3,0-3.4,0.1c-1.4,0-3,0.3-4.4,0   c0.1-1.3,0.1-2.7,0-4c0-1.7-0.4-4-0.1-5.8c2.1-0.1,4.5,0.1,6.6,0.1c2.2,0,4.4,0.1,6.6-0.1C819.2,266.9,819.2,272.2,817.6,276.1z"></path></g><g xmlns="http://www.w3.org/2000/svg"><path d="M1162.2,270.9c-0.3-9.5-0.3-19.2-1.1-28.7c-0.5-5.9-1.4-16.5-9.5-15.3c-13.6,1.2-27.1,0.7-40.7,0.4   c-6.6-0.1-13.3-0.3-19.9-0.3c-6.1,0-12.7-0.1-18.8,1.4c-0.4-0.3-1-0.5-1.7-0.1c-6.3,2.9-5.4,10.2-5.5,16.1   c-0.1,8-0.1,16.1,0.1,24.1c0.2,7.9,0.6,15.7,1.2,23.6c0.6,7.7,0.8,15.9,2.5,23.4c0.1,0.4,0.3,0.7,0.6,0.9c2.9,4.4,8.9,3.3,13.5,2.6   c7.5-1.1,15.1-0.8,22.7-1.1c15.1-0.5,30.2-1.1,45.3-1.6c0.4,0,0.7-0.1,0.9-0.2c0.2,0,0.4,0.1,0.6,0c3-0.4,7.4-0.8,9.1-3.8   c0.8-1.4,0.7-3.1,0.8-4.7c0.1-2.4,0.1-4.8,0.2-7.2C1162.5,290.5,1162.5,280.7,1162.2,270.9z M1158.4,294.1c0,3.8-0.1,7.6-0.2,11.4   c0,1.2,0.3,3.5-0.3,4.6c-0.8,1.5-4.1,1.7-5.6,1.9c-0.2,0-0.5,0.1-0.7,0.2c-0.3-0.1-0.6-0.2-0.9-0.2c-13.6,0.5-27.1,1-40.7,1.5   c-6.7,0.2-13.3,0.5-19.9,0.9c-3.1,0.2-6.2,0.4-9.3,0.9c-1.9,0.4-7.7,2-9-0.6c-0.2-7-1.5-14.1-2.1-21.1c-0.5-7-0.9-14-1.1-21   c-0.3-7-0.4-14-0.4-21c0-3.4,0-6.8,0-10.3c0-2.4-0.9-10.1,3.1-10.1c0.7,0,1.2-0.4,1.4-0.8c6.2,0.1,12.6-0.7,18.8-0.8   c6.6-0.1,13.3,0.1,19.9,0.4c13,0.5,26.3,1,39.3,0c0.3,0.2,0.7,0.3,1.2,0.1c5.9-2.4,5.7,16.9,5.8,19.8c0.3,7.4,0.5,14.8,0.6,22.2   C1158.4,279.3,1158.5,286.7,1158.4,294.1z"></path><path d="M1150.1,262.2c-1.9-5.1-4.5-9.7-8.3-13.9c-4.9-5.4-11.2-9.5-18.2-11.6c-15.7-4.7-34,0.9-42.2,15.6   c-7.7,13.7-4.7,32.4,4.8,44.5c10.3,13.1,28.5,16,43.5,9.7c16.6-7.1,26.9-25.6,21.2-43.3C1150.7,262.8,1150.4,262.4,1150.1,262.2z    M1132.8,300.5c-12.5,7.6-29.9,7.7-40.9-2.7c-10-9.6-14-25.9-9.4-39c5-14.5,20.9-21.9,35.5-19.5c12.5,2,24.9,11.4,29.5,23.5   c-0.2,0.4-0.3,0.9-0.2,1.4C1151.3,278.1,1145,293,1132.8,300.5z"></path><path d="M1110.4,246.6c0,0.5,0,1,0.2,1.5c0.1,0.6,0.5,0.9,0.9,1.1c0.3,0.3,0.7,0.5,1.1,0.5c0.7,0,1.5-0.5,1.6-1.2   c0.2-1.4,0.2-2.9,0.2-4.4c0-0.9-0.7-1.6-1.5-1.7c-0.5-0.1-0.9,0.1-1.2,0.3c-0.3,0-0.6,0.1-0.9,0.3c-0.4,0.3-0.7,1-0.6,1.5   C1110.1,245.2,1110.1,245.9,1110.4,246.6z"></path><path d="M1087.3,272C1087.3,271.9,1087.3,271.9,1087.3,272c-1.1-0.3-2.1-0.2-3.1,0c-0.4,0.1-0.8,0.4-1,0.7   c-0.3,0.3-0.5,0.6-0.5,1c-0.1,0.8,0.4,1.8,1.3,1.9c0.6,0.1,1.3,0.2,1.9,0.2c0.1,0,0.9-0.1,0.8-0.1c0.2,0,0.5-0.1,0.7-0.1   c0.1,0,0.2,0,0.3-0.1c1.1-0.1,1.9-0.9,1.8-2C1089.4,272.5,1088.4,271.7,1087.3,272z"></path><path d="M1086,275.8C1086,275.8,1086,275.8,1086,275.8C1085.9,275.8,1086,275.8,1086,275.8z"></path><path d="M1144.8,270.8c-0.4-0.2-0.9-0.2-1.3-0.2c-0.8-0.1-1.6-0.1-2.4,0.1c-0.8,0.2-1.3,1-1.3,1.8   c0,0.9,0.6,1.5,1.3,1.8c0.4,0.1,0.8,0.2,1.2,0.2c0.2,0,0.3,0,0.4-0.1c0.1,0,0.3,0.1,0.4,0.1c0.2,0,0.4,0.1,0.6,0.1   c0.4-0.1,0.5-0.1,0.4-0.1c0.1,0,0.3,0,0.4,0c0.8-0.1,1.4-0.5,1.6-1.2c0.2-0.3,0.3-0.7,0.3-1.1   C1146.3,271.3,1145.6,270.7,1144.8,270.8z"></path><path d="M1144.1,274.4c-0.1,0-0.1,0-0.2,0C1144,274.4,1144.1,274.4,1144.1,274.4z"></path><path d="M1116.3,296.4c-1,0-1.7,0.8-1.8,1.8c0,0,0,0.1,0,0.1c0,0.1,0,0.2,0,0.2c-0.1,0.6-0.1,1.3-0.1,1.9   c0,0.3-0.1,0.6,0,0.9c0,0,0,0.1,0,0.1h0c0,0.2,0,0.3,0.1,0.5c0.1,0.9,1.2,1.4,2,1.3c0.9-0.1,1.5-0.9,1.6-1.8c0,0,0-0.1,0-0.1   c0-0.1,0.1-0.2,0.1-0.4c0.1-0.7,0-1.3,0-2c0-0.3,0-0.6,0-0.9C1118.2,297.2,1117.3,296.4,1116.3,296.4z"></path><path d="M1090.1,259.2C1090.1,259.2,1090.1,259.2,1090.1,259.2c-0.5-0.3-1.4-0.2-1.8,0.2   c-0.4,0.5-0.6,1.2-0.2,1.8c0,0,0,0,0,0c0.4,1,1.7,1.3,2.6,0.5C1091.4,261,1091.1,259.6,1090.1,259.2z"></path><path d="M1098.4,248.7c-2,0-2,3.1,0,3.1C1100.4,251.8,1100.4,248.7,1098.4,248.7z"></path><path d="M1125.4,251.2c0.2,0.3,0.4,0.5,0.7,0.6c0.3,0.1,0.7,0.2,1,0.1c0.6-0.2,1.2-0.8,1.1-1.5   c0-0.6-0.4-1.2-1-1.4c-0.3-0.1-0.7-0.2-1-0.1c-0.4,0.1-0.7,0.4-0.9,0.7c0,0,0,0-0.1,0.1C1125.1,250,1125.1,250.7,1125.4,251.2   C1125.4,251.1,1125.4,251.2,1125.4,251.2z"></path><path d="M1137.4,258.4c-2,0-2,3.1,0,3.1C1139.4,261.5,1139.4,258.4,1137.4,258.4z"></path><path d="M1137.2,283.2c-0.8,0-1.6,0.7-1.6,1.6c0,0.8,0.7,1.6,1.6,1.6c0.8,0,1.6-0.7,1.6-1.6   C1138.7,283.9,1138.1,283.2,1137.2,283.2z"></path><path d="M1128.9,292.7c-2,0-2,3.1,0,3.1C1130.9,295.9,1130.9,292.7,1128.9,292.7z"></path><path d="M1090.8,285c-0.1,0.3-0.1,0.6,0,1c0.1,0.4,0.6,0.9,1,1c0.3,0,0.6,0.1,1,0c1.1-0.3,1.5-1.8,0.7-2.6   C1092.5,283.5,1091.1,283.9,1090.8,285z"></path><path d="M1102,292.6c-2,0-2,3.1,0,3.1C1104,295.7,1104,292.6,1102,292.6z"></path><path d="M1126.5,261.1c-2.9,1.7-5.4,4.2-8,6.4c-1.5,1.3-3.8,2.8-5.2,4.6c-1.1-0.8-2-1.9-2.9-2.7   c-1.3-1.1-2.2-2.5-3.5-3.6c-1.4-1.2-3.4,0.3-2.6,2c0.8,1.7,2.4,3,3.8,4.3c1.2,1.2,2.8,1.8,4.2,2.7c0.1,0.5,0.5,1,1.1,1   c0.1,0,0.2,0,0.3,0c0.6,0.2,1.2,0,1.5-0.5c2-0.9,3.8-3,5.5-4.3c2.7-2.2,5.8-4.3,8.3-6.7C1130.5,262.6,1128.5,259.9,1126.5,261.1z"></path></g><g xmlns="http://www.w3.org/2000/svg"><path d="M749.3,378.4c-0.3-9.5-0.3-19.2-1.1-28.7c-0.5-5.9-1.4-16.5-9.5-15.3c-13.6,1.2-27.1,0.7-40.7,0.4   c-6.6-0.1-13.3-0.3-19.9-0.3c-6.1,0-12.7-0.1-18.8,1.4c-0.4-0.3-1-0.5-1.7-0.1c-6.3,2.9-5.4,10.2-5.5,16.1   c-0.1,8-0.1,16.1,0.1,24.1c0.2,7.9,0.6,15.7,1.2,23.6c0.6,7.7,0.8,15.9,2.5,23.4c0.1,0.4,0.3,0.7,0.6,0.9c2.9,4.4,8.9,3.3,13.5,2.6   c7.5-1.1,15.1-0.8,22.7-1.1c15.1-0.5,30.2-1.1,45.3-1.6c0.4,0,0.7-0.1,0.9-0.2c0.2,0,0.4,0.1,0.6,0c3-0.4,7.4-0.8,9.1-3.8   c0.8-1.4,0.7-3.1,0.8-4.7c0.1-2.4,0.1-4.8,0.2-7.2C749.6,398,749.5,388.2,749.3,378.4z M745.5,401.6c0,3.8-0.1,7.6-0.2,11.4   c0,1.2,0.3,3.5-0.3,4.6c-0.8,1.5-4.1,1.7-5.6,1.9c-0.2,0-0.5,0.1-0.7,0.2c-0.3-0.1-0.6-0.2-0.9-0.2c-13.6,0.5-27.1,1-40.7,1.5   c-6.7,0.2-13.3,0.5-19.9,0.9c-3.1,0.2-6.2,0.4-9.3,0.9c-1.9,0.4-7.7,2-9-0.6c-0.2-7-1.5-14.1-2.1-21.1c-0.5-7-0.9-14-1.1-21   c-0.3-7-0.4-14-0.4-21c0-3.4,0-6.8,0-10.3c0-2.4-0.9-10.1,3.1-10.1c0.7,0,1.2-0.4,1.4-0.8c6.2,0.1,12.6-0.7,18.8-0.8   c6.6-0.1,13.3,0.1,19.9,0.4c13,0.5,26.3,1,39.3,0c0.3,0.2,0.7,0.3,1.2,0.1c5.9-2.4,5.7,16.9,5.8,19.8c0.3,7.4,0.5,14.8,0.6,22.2   C745.5,386.8,745.6,394.2,745.5,401.6z"></path><path d="M722.7,372.3c0-4.3-0.1-8.7-0.1-13c0-4.4-0.6-9.1-0.2-13.5c0.2-1.9-2.8-2-3.1-0.4   c-5.6,2.1-11.1,4.4-16.6,6.6c-2.7,1.1-5.4,2.2-8.1,3.3c-2.7,1.1-5.8,2.7-8.7,3.1c-0.9,0.1-1.2,0.8-1.1,1.5   c-0.1,0.2-0.1,0.4-0.1,0.7c0.5,6.5,0,13.2,0,19.8c0,6.1-0.6,12.6,0,18.7c-3.8,1.7-8.2,1.4-11.2,5c-2.4,2.9-2.7,7.1,0.2,9.7   c6.2,5.8,16.8,1.7,19.3-5.7c0.2-0.5,0.1-0.9-0.2-1.3c0.1-10.7,0.1-21.4,0.1-32.1c0,0,0.1,0,0.1-0.1c1.7-1.1,4-1.5,5.9-2.1   c1.8-0.6,3.6-1.2,5.4-1.9c3-1.1,6.1-2.1,9.1-3.2c0.2,8.3-1,16.8-0.1,25.1c-0.8,1.2-3.5,1.5-4.8,2c-1.6,0.6-3,1.4-4,2.8   c-2.1,2.9-1.6,6.9,0.8,9.4c6.1,6.2,15.8,0.3,17-7.2c0,0,0,0,0,0c0.1-0.2,0.2-0.5,0.3-0.8c0.4-4.5,0.2-9,0.2-13.5   C722.7,381,722.7,376.6,722.7,372.3z M719.2,398.3c-0.1,0.1-0.1,0.2-0.2,0.4c-0.9,2.6-1.9,5.1-4.5,6.4c-2.6,1.4-6.3,0.9-7.6-1.9   c-1.4-2.9,0.8-5,3.3-5.9c2-0.7,3.4-1.5,5.2-2.7c0.5-0.3,0.7-0.7,0.8-1.1c0-0.1,0-0.2,0.1-0.3c1.1-9.2-0.4-18.7,0.1-27.9   c0-0.9-0.6-1.4-1.3-1.5c-0.3-0.1-0.6-0.1-1,0c-3.5,1.4-7.1,2.7-10.6,4c-1.6,0.6-3.2,1.1-4.9,1.7c-2,0.7-4.4,2.1-6.4,2.1   c-0.3,0-0.6,0.1-0.8,0.2c0,0,0,0-0.1,0c-0.8,0-1.6,0.7-1.6,1.6c0,0.1,0,0.3,0.1,0.4c0,0.1-0.1,0.3-0.1,0.5c0,10.8,0,21.7,0.1,32.6   c-1.2,2.3-2.9,4.3-5.4,5.3c-2.4,0.9-6.2,1-8.2-1c-5.2-5,7.2-8.7,10.2-9.5c0.5-0.1,0.8-0.5,1-0.8c0.1-0.2,0.2-0.4,0.2-0.7   c0.8-6.4,0.1-13.3,0.1-19.8c0-6.5-0.5-13.1,0-19.6c2.4-1.4,5.5-2.2,8-3.1c2.7-1,5.5-2,8.2-3c5.2-1.9,10.3-3.8,15.5-5.8   c0,3.5-0.3,7-0.3,10.5c0,4.3-0.1,8.7-0.1,13c0,4.3,0,8.7,0,13C719.1,389.6,718.8,394,719.2,398.3z"></path></g><g xmlns="http://www.w3.org/2000/svg"><path d="M98.7,47.6c-0.3-9.5-0.3-19.2-1.1-28.7C97.2,13,96.3,2.4,88.2,3.6C74.5,4.8,61.1,4.3,47.4,4   c-6.6-0.1-13.3-0.3-19.9-0.3c-6.1,0-12.7-0.1-18.8,1.4C8.4,4.7,7.8,4.6,7.1,5C0.8,7.8,1.7,15.1,1.6,21.1c-0.1,8-0.1,16.1,0.1,24.1   c0.2,7.9,0.6,15.7,1.2,23.6c0.6,7.7,0.8,15.9,2.5,23.4c0.1,0.4,0.3,0.7,0.6,0.9c2.9,4.4,8.9,3.3,13.5,2.6   c7.5-1.1,15.1-0.8,22.7-1.1c15.1-0.5,30.2-1.1,45.3-1.6c0.4,0,0.7-0.1,0.9-0.2c0.2,0,0.4,0.1,0.6,0c3-0.4,7.4-0.8,9.1-3.8   c0.8-1.4,0.7-3.1,0.8-4.7c0.1-2.4,0.1-4.8,0.2-7.2C99.1,67.2,99,57.4,98.7,47.6z M95,70.8c0,3.8-0.1,7.6-0.2,11.4   c0,1.2,0.3,3.5-0.3,4.6c-0.8,1.5-4.1,1.7-5.6,1.9c-0.2,0-0.5,0.1-0.7,0.2c-0.3-0.1-0.6-0.2-0.9-0.2c-13.6,0.5-27.1,1-40.7,1.5   c-6.7,0.2-13.3,0.5-19.9,0.9c-3.1,0.2-6.2,0.4-9.3,0.9c-1.9,0.4-7.7,2-9-0.6c-0.2-7-1.5-14.1-2.1-21.1c-0.5-7-0.9-14-1.1-21   c-0.3-7-0.4-14-0.4-21c0-3.4,0-6.8,0-10.3c0-2.4-0.9-10.1,3.1-10.1C8.6,7.9,9,7.5,9.2,7C15.5,7.1,21.8,6.3,28,6.2   c6.6-0.1,13.3,0.1,19.9,0.4c13,0.5,26.3,1,39.3,0c0.3,0.2,0.7,0.3,1.2,0.1c5.9-2.4,5.7,16.9,5.8,19.8c0.3,7.4,0.5,14.8,0.6,22.2   C95,56,95,63.4,95,70.8z"></path><path d="M74.8,15.9c-2.5,0.2-5,1.2-6.9,2.7c-1.2,0.9-2.3,2.1-3.2,3.3c-0.5,0.7-1,1.6-1.4,2.4   c-1.5-1.7-2.9-3.5-5-4.7c-2.4-1.4-5-2.2-7.8-2.1c-5.7,0.2-10.2,4.2-10.7,10c-0.5,6.3,3.6,12.2,8,16.3c5.2,4.9,11.6,8.1,18,11.1   c0.5,0.8,1.7,1.2,2.6,0.3c5.1-4.6,9.6-9.9,13.5-15.5c3.2-4.7,5.7-10.3,3.9-16C84.1,18.9,80,15.5,74.8,15.9z M82.6,28.8   c-0.4,4.8-3.9,9.2-6.8,12.9c-2.7,3.5-5.7,6.8-8.7,10c-8.6-4.2-18.4-9-22.5-18.2c-2.2-4.8-1.4-11.1,4.4-12.6   c4.4-1.2,10.6,1.7,12.6,6c-0.9,1.9,2.4,3.2,3.1,1.5c0.5-0.4,0.8-1.1,0.5-1.8c1.5-4,6.5-7.6,10.5-7.3C80.3,19.7,82.9,24.4,82.6,28.8   z"></path></g></g><g id="SvgjsG1912" featurekey="nameFeature-0" transform="matrix(1.0549794722011878,0,0,1.0549794722011878,-2.5152670674352355e-7,147.68676163832183)" fill="#522546"><path d="M18.52 40 l-7 0 l0 -29.88 l7 0 l0 29.88 z M30.2 20 c-0.82668 -1.6 -1.68 -3.0133 -2.56 -4.24 s-1.6933 -2.2667 -2.44 -3.12 c-0.88 -0.98668 -1.7467 -1.8267 -2.6 -2.52 l7.6 0 l0 9.88 z M7.52 10.04 c-1.2 0.72 -2.26 1.6467 -3.18 2.78 s-1.7 2.2333 -2.34 3.3 c-0.74668 1.2533 -1.4134 2.5466 -2 3.88 l0 -9.96 l7.52 0 z M49.04 19.16 c0.93332 0.24 1.82 0.66 2.66 1.26 s1.58 1.3267 2.22 2.18 s1.1467 1.8133 1.52 2.88 s0.56 2.1867 0.56 3.36 l0 11.16 l-7.32 0 l0 -11.72 l0 -9.2 c0.05332 0.02668 0.11332 0.04 0.18 0.04 s0.12668 0.01332 0.18 0.04 z M32.8 13.920000000000002 c1.2267 -0.53332 2.3732 -1.0867 3.4399 -1.66 s1.9867 -1.1 2.76 -1.58 c0.90668 -0.53332 1.7334 -1.0666 2.48 -1.6 l0 30.92 l-7 0 l0 -21.16 c0 -1.0133 -0.08668 -1.84 -0.26 -2.48 s-0.36664 -1.1467 -0.57996 -1.52 c-0.26668 -0.42668 -0.54668 -0.73336 -0.84 -0.92004 z M77.36 37.56 c0.93332 0 1.7733 -0.09332 2.52 -0.28 c-1.0933 1.0133 -2.3666 1.82 -3.82 2.42 s-3.02 0.9 -4.7 0.9 c-1.6533 0 -3.2066 -0.28668 -4.66 -0.86 s-2.72 -1.36 -3.8 -2.36 s-1.9333 -2.1733 -2.56 -3.52 s-0.94 -2.78 -0.94 -4.3 c0 -1.4667 0.26668 -2.84 0.8 -4.12 s1.26 -2.4067 2.18 -3.38 s2.0067 -1.76 3.26 -2.36 s2.5866 -0.94 4 -1.02 c-0.98668 1.12 -1.7067 2.3733 -2.16 3.76 s-0.68 2.9467 -0.68 4.68 c0 1.5467 0.27332 2.96 0.82 4.24 s1.3 2.38 2.26 3.3 s2.08 1.6333 3.36 2.14 s2.6533 0.76 4.12 0.76 z M75.32 30.04 c0.08 -0.42668 0.14672 -0.85332 0.20004 -1.28 s0.08 -0.86668 0.08 -1.32 c0 -1.7867 -0.22668 -3.4067 -0.68 -4.86 s-1.1733 -2.7533 -2.16 -3.9 c1.4133 0.08 2.7466 0.43332 4 1.06 s2.34 1.4467 3.26 2.46 s1.6467 2.18 2.18 3.5 s0.8 2.74 0.8 4.26 l0 0.08 l-7.68 0 z  M117.92 10.120000000000001 c1.6 0 3.1333 0.3868 4.6 1.1601 s2.76 1.84 3.88 3.2 s2.0133 2.9467 2.68 4.76 s1 3.76 1 5.84 c0 2.0533 -0.33332 3.9866 -1 5.8 s-1.56 3.3933 -2.68 4.74 s-2.4133 2.4067 -3.88 3.18 s-3 1.16 -4.6 1.16 l-0.04 0 c0.53332 -0.58668 1.0466 -1.3734 1.54 -2.36 s0.92664 -2.1267 1.3 -3.42 s0.67332 -2.7133 0.9 -4.26 s0.34 -3.16 0.34 -4.84 c0 -1.7067 -0.11332 -3.3334 -0.34 -4.88 s-0.52668 -2.9667 -0.9 -4.26 s-0.80664 -2.4333 -1.3 -3.42 s-1.0066 -1.7867 -1.54 -2.4 l0.04 0 z M110.04 10.04 l0 29.96 l-7.04 0 l0 -29.96 l7.04 0 z M142.52 11.68 c0 0.53332 -0.1 1.0266 -0.3 1.48 s-0.47332 0.85332 -0.82 1.2 s-0.75336 0.62 -1.22 0.82 s-0.95336 0.3 -1.46 0.3 c-0.53332 0 -1.0333 -0.1 -1.5 -0.3 s-0.86668 -0.47332 -1.2 -0.82 s-0.6 -0.74668 -0.8 -1.2 s-0.3 -0.94664 -0.3 -1.48 c0 -0.50668 0.1 -0.99336 0.3 -1.46 s0.46668 -0.87336 0.8 -1.22 s0.73332 -0.62 1.2 -0.82 s0.96668 -0.3 1.5 -0.3 c0.50668 0 0.99336 0.1 1.46 0.3 s0.87336 0.47332 1.22 0.82 s0.62 0.75336 0.82 1.22 s0.3 0.95336 0.3 1.46 z M133.28000000000003 22.92 c0.29332 0.18668 0.57344 0.4934 0.84012 0.92008 c0.21332 0.37332 0.40664 0.88 0.57996 1.52 s0.26 1.4667 0.26 2.48 l0 12.16 l7 0 l0 -21.92 c-0.74668 0.53332 -1.5734 1.0666 -2.48 1.6 c-0.77332 0.48 -1.6933 1.0067 -2.76 1.58 s-2.2134 1.1266 -3.44 1.66 z M160 26.119999999999997 c1.2267 0.50668 2.32 1.1533 3.28 1.94 s1.76 1.68 2.4 2.68 s1.1133 2.0867 1.42 3.26 s0.42 2.3733 0.34 3.6 l-12.04 -4.84 l0 -0.04 c-1.2 -0.48 -2.28 -1.12 -3.24 -1.92 s-1.7667 -1.7 -2.42 -2.7 s-1.1333 -2.08 -1.44 -3.24 s-0.40668 -2.3667 -0.3 -3.62 z M166.84 27.08 c-0.8 -1.44 -1.7733 -2.6667 -2.92 -3.68 s-2.2667 -1.8533 -3.36 -2.52 c-1.28 -0.77332 -2.5867 -1.4266 -3.92 -1.96 l10.2 0 l0 8.16 z M147.96 31.4 c0.77332 1.44 1.7267 2.6933 2.86 3.76 s2.2333 1.96 3.3 2.68 c1.2533 0.85332 2.5333 1.56 3.84 2.12 l-10 0 l0 -8.56 z M186 19.16 c0.93332 0.24 1.82 0.66 2.66 1.26 s1.58 1.3267 2.22 2.18 s1.1467 1.8133 1.52 2.88 s0.56 2.1867 0.56 3.36 l0 11.16 l-7.32 0 l0 -11.72 l0 -9.2 c0.05332 0.02668 0.11332 0.04 0.18 0.04 s0.12668 0.01332 0.18 0.04 z M169.76 13.920000000000002 c1.2267 -0.53332 2.3732 -1.0867 3.4399 -1.66 s1.9867 -1.1 2.76 -1.58 c0.90668 -0.53332 1.7334 -1.0666 2.48 -1.6 l0 30.92 l-7 0 l0 -21.16 c0 -1.0133 -0.08668 -1.84 -0.26 -2.48 s-0.36664 -1.1467 -0.57996 -1.52 c-0.26668 -0.42668 -0.54668 -0.73336 -0.84 -0.92004 z  M230 10.120000000000001 c1.6 0 3.1333 0.3868 4.6 1.1601 s2.76 1.84 3.88 3.2 s2.0133 2.9467 2.68 4.76 s1 3.76 1 5.84 c0 2.0533 -0.33332 3.9866 -1 5.8 s-1.56 3.3933 -2.68 4.74 s-2.4133 2.4067 -3.88 3.18 s-3 1.16 -4.6 1.16 l-0.04 0 c0.53332 -0.58668 1.0466 -1.3734 1.54 -2.36 s0.92664 -2.1267 1.3 -3.42 s0.67332 -2.7133 0.9 -4.26 s0.34 -3.16 0.34 -4.84 c0 -1.7067 -0.11332 -3.3334 -0.34 -4.88 s-0.52668 -2.9667 -0.9 -4.26 s-0.80664 -2.4333 -1.3 -3.42 s-1.0066 -1.7867 -1.54 -2.4 l0.04 0 z M222.12 10.04 l0 29.96 l-7.04 0 l0 -29.96 l7.04 0 z M254.6 11.68 c0 0.53332 -0.1 1.0266 -0.3 1.48 s-0.47332 0.85332 -0.82 1.2 s-0.75336 0.62 -1.22 0.82 s-0.95336 0.3 -1.46 0.3 c-0.53332 0 -1.0333 -0.1 -1.5 -0.3 s-0.86668 -0.47332 -1.2 -0.82 s-0.6 -0.74668 -0.8 -1.2 s-0.3 -0.94664 -0.3 -1.48 c0 -0.50668 0.1 -0.99336 0.3 -1.46 s0.46668 -0.87336 0.8 -1.22 s0.73332 -0.62 1.2 -0.82 s0.96668 -0.3 1.5 -0.3 c0.50668 0 0.99336 0.1 1.46 0.3 s0.87336 0.47332 1.22 0.82 s0.62 0.75336 0.82 1.22 s0.3 0.95336 0.3 1.46 z M245.36 22.92 c0.29332 0.18668 0.57344 0.4934 0.84012 0.92008 c0.21332 0.37332 0.40664 0.88 0.57996 1.52 s0.26 1.4667 0.26 2.48 l0 12.16 l7 0 l0 -21.92 c-0.74668 0.53332 -1.5734 1.0666 -2.48 1.6 c-0.77332 0.48 -1.6933 1.0067 -2.76 1.58 s-2.2134 1.1266 -3.44 1.66 z M261.2 25.16 c-0.72 -1.68 -0.23996 -3.2267 1.44 -4.64 c0.58668 -0.48 1.18 -0.84668 1.78 -1.1 s1.1533 -0.43332 1.66 -0.54 c0.58668 -0.10668 1.1467 -0.16 1.68 -0.16 c-0.29332 0.26668 -0.52 0.58668 -0.68 0.96 c-0.13332 0.32 -0.21332 0.71332 -0.24 1.18 s0.10664 1.0067 0.39996 1.62 c0.18668 0.4 0.28668 0.82 0.3 1.26 s-0.06 0.86 -0.22 1.26 s-0.38668 0.76 -0.68 1.08 s-0.65332 0.57332 -1.08 0.76 c-0.4 0.18668 -0.82 0.28 -1.26 0.28 s-0.86 -0.07332 -1.26 -0.22 s-0.76 -0.36668 -1.08 -0.66 s-0.57332 -0.65332 -0.76 -1.08 z M266.40000000000003 39.92 l3.08 0 c-1.0933 -0.37332 -1.9866 -1.04 -2.68 -2 s-1.04 -2.0533 -1.04 -3.28 s0.34668 -2.32 1.04 -3.28 s1.5866 -1.6267 2.68 -2 l-3.52 0 c-1.36 0 -2.5 0.17332 -3.42 0.52 s-1.6467 0.78 -2.18 1.3 s-0.91332 1.0867 -1.14 1.7 s-0.34 1.2 -0.34 1.76 c0 0.58668 0.1 1.1867 0.3 1.8 s0.56668 1.18 1.1 1.7 s1.26 0.94668 2.18 1.28 s2.0867 0.5 3.5 0.5 l0.44 0 z M274.36 19.04 l-0.36 -0.08 l0 9.2 l0 11.84 l7.32 0 l0 -11.28 c0 -1.1733 -0.18668 -2.2933 -0.56 -3.36 s-0.88 -2.0267 -1.52 -2.88 s-1.38 -1.58 -2.22 -2.18 s-1.7267 -1.02 -2.66 -1.26 z M304.20000000000005 19.32 c0.74668 0.61332 1.1599 1.38 1.2399 2.3 s-0.17332 1.74 -0.76 2.46 c-0.61332 0.74668 -1.3866 1.16 -2.32 1.24 s-1.7733 -0.18668 -2.52 -0.8 c-0.53332 -0.45332 -1.04 -0.73332 -1.52 -0.84 s-0.90668 -0.13336 -1.28 -0.08004 c-0.45332 0.05332 -0.85332 0.18664 -1.2 0.39996 c0.18668 -0.56 0.42668 -1.1067 0.72 -1.64 c0.26668 -0.45332 0.61336 -0.94664 1.04 -1.48 s0.97336 -1.0266 1.64 -1.48 c1.8933 -1.2533 3.5466 -1.28 4.96 -0.08 z M286.599921876 21.8 c0.82668 -0.21332 1.66 -0.5134 2.5 -0.90008 s1.5933 -0.78668 2.26 -1.2 s1.2067 -0.78664 1.62 -1.12 s0.62 -0.56664 0.62 -0.69996 l0 22 l-7 0 l0 -18.08 z M306.84000000000003 44.64 c-0.16 -0.42668 -0.24 -0.85996 -0.24 -1.3 s0.08 -0.85332 0.24 -1.24 s0.39332 -0.73336 0.7 -1.04 s0.66 -0.54 1.06 -0.7 c0.85332 -0.34668 1.6933 -0.34668 2.52 0 s1.4134 0.93336 1.76 1.76 c0.26668 0.61332 0.57336 1.0733 0.92004 1.38 s0.68 0.52668 1 0.66 c0.37332 0.13332 0.76 0.18664 1.16 0.15996 c-0.37332 0.42668 -0.8 0.8 -1.28 1.12 c-0.42668 0.29332 -0.93336 0.57332 -1.52 0.84 s-1.2534 0.44 -2 0.52 c-2.2133 0.18668 -3.6533 -0.53332 -4.32 -2.16 z M326 27.240000000000002 c-0.29332 -1.12 -0.67996 -2.2134 -1.16 -3.2801 c-0.4 -0.90668 -0.92668 -1.8267 -1.58 -2.76 s-1.4466 -1.7066 -2.38 -2.32 l6.04 0 l4.84 0 c-0.58668 0.82668 -1.2134 1.72 -1.88 2.68 s-1.2934 1.8667 -1.88 2.72 c-0.69332 0.98668 -1.36 1.9734 -2 2.96 z M322.88000000000005 33.480000000000004 l-4.16 6.48 l-12.48 -21.08 l8.04 0 z"></path></g></svg>