<svg width="396" height="121.55833358735691" viewBox="0 0 350 107.43792109993666" class="css-1j8o68f"><defs id="SvgjsDefs2105"><linearGradient id="SvgjsLinearGradient2110"><stop id="SvgjsStop2111" stop-color="#7d141d" offset="0"></stop><stop id="SvgjsStop2112" stop-color="#ff1e27" offset="1"></stop></linearGradient></defs><g id="SvgjsG2106" featurekey="symbolFeature-0" transform="matrix(0.107668997742526,0,0,0.107668997742526,112.8348018813061,-0.37750686600151623)" fill="#bf1922"><g xmlns="http://www.w3.org/2000/svg"><path d="M538.2,274.4c-0.3-9.5-0.3-19.2-1.1-28.7c-0.5-5.9-1.4-16.5-9.5-15.3c-13.6,1.2-27.1,0.7-40.7,0.4   c-6.6-0.1-13.3-0.3-19.9-0.3c-6.1,0-12.7-0.1-18.8,1.4c-0.4-0.3-1-0.5-1.7-0.1c-6.3,2.9-5.4,10.2-5.5,16.1   c-0.1,8-0.1,16.1,0.1,24.1c0.2,7.9,0.6,15.7,1.2,23.6c0.6,7.7,0.8,15.9,2.5,23.4c0.1,0.4,0.3,0.7,0.6,0.9c2.9,4.4,8.9,3.3,13.5,2.6   c7.5-1.1,15.1-0.8,22.7-1.1c15.1-0.5,30.2-1.1,45.3-1.6c0.4,0,0.7-0.1,0.9-0.2c0.2,0,0.4,0.1,0.6,0c3-0.4,7.4-0.8,9.1-3.8   c0.8-1.4,0.7-3.1,0.8-4.7c0.1-2.4,0.1-4.8,0.2-7.2C538.5,294,538.4,284.2,538.2,274.4z M534.4,297.6c0,3.8-0.1,7.6-0.2,11.4   c0,1.2,0.3,3.5-0.3,4.6c-0.8,1.5-4.1,1.7-5.6,1.9c-0.2,0-0.5,0.1-0.7,0.2c-0.3-0.1-0.6-0.2-0.9-0.2c-13.6,0.5-27.1,1-40.7,1.5   c-6.7,0.2-13.3,0.5-19.9,0.9c-3.1,0.2-6.2,0.4-9.3,0.9c-1.9,0.4-7.7,2-9-0.6c-0.2-7-1.5-14.1-2.1-21.1c-0.5-7-0.9-14-1.1-21   c-0.3-7-0.4-14-0.4-21c0-3.4,0-6.8,0-10.3c0-2.4-0.9-10.1,3.1-10.1c0.7,0,1.2-0.4,1.4-0.8c6.2,0.1,12.6-0.7,18.8-0.8   c6.6-0.1,13.3,0.1,19.9,0.4c13,0.5,26.3,1,39.3,0c0.3,0.2,0.7,0.3,1.2,0.1c5.9-2.4,5.7,16.9,5.8,19.8c0.3,7.4,0.5,14.8,0.6,22.2   C534.4,282.8,534.4,290.2,534.4,297.6z"></path><path d="M526.1,265.8c-1.9-5.1-4.5-9.7-8.3-13.9c-4.9-5.4-11.2-9.5-18.2-11.6c-15.7-4.7-34,0.9-42.2,15.6   c-7.7,13.7-4.7,32.4,4.8,44.5c10.3,13.1,28.5,16,43.5,9.7c16.6-7.1,26.9-25.6,21.2-43.3C526.6,266.3,526.4,266,526.1,265.8z    M508.7,304.1c-12.5,7.6-29.9,7.7-40.9-2.7c-10-9.6-14-25.9-9.4-39c5-14.5,20.9-21.9,35.5-19.5c12.5,2,24.9,11.4,29.5,23.5   c-0.2,0.4-0.3,0.9-0.2,1.4C527.3,281.6,521,296.5,508.7,304.1z"></path><path d="M509.6,257.7c1.3-1.2-0.7-3.8-2.2-2.2c-1.5,1.6-4.2,2.7-6.1,3.8c-1.9,1.1-3.7,2.3-5.6,3.5   c-3.7,2.3-7.3,4.7-10.9,7.3c-0.3,0.2-0.5,0.5-0.7,0.8c-0.3,0.2-0.6,0.5-0.7,1c-1,4.1-4,8.2-6.1,11.8c-2.1,3.7-4.4,7.3-6.5,10.9   c-0.1,0.1-0.1,0.2-0.1,0.3c-1.3,1.2,0.7,3.8,2.2,2.2c1.5-1.6,4.2-2.7,6.1-3.8c1.9-1.1,3.7-2.3,5.6-3.5c3.7-2.3,7.3-4.7,10.9-7.3   c0.3-0.2,0.5-0.5,0.7-0.8c0.3-0.2,0.6-0.5,0.7-1c1-4.1,4-8.2,6.1-11.8c2.1-3.7,4.4-7.3,6.5-10.9   C509.5,257.9,509.5,257.8,509.6,257.7z M482.9,286.9c-1.7,1.2-3.3,2.3-5,3.4c-0.6,0.4-1.3,0.9-1.9,1.4c1.3-2.2,2.6-4.4,3.8-6.7   c0.9-1.7,1.9-3.4,2.8-5.2c1-1.9,1.8-4.1,3-5.9c2.1,2.1,4,4.4,6.3,6.4c0.1,0.1,0.1,0.1,0.2,0.1C489,282.7,486,284.8,482.9,286.9z    M500.5,267.5c-0.9,1.7-1.9,3.4-2.8,5.2c-1,1.9-1.8,4.1-3,5.9c-2.1-2.1-4-4.4-6.3-6.4c-0.1-0.1-0.1-0.1-0.2-0.1   c3-2.2,6-4.3,9.1-6.5c1.7-1.2,3.3-2.3,5-3.4c0.6-0.4,1.3-0.9,1.9-1.4C503,263,501.7,265.2,500.5,267.5z"></path><path d="M469.4,254.9c0.8,1,1.8,2,2.7,2.9c1.3,1.4,3.4-0.7,2.1-2.1c-0.9-0.9-1.7-2-2.7-2.8   c-0.3-0.9-1.5-1.4-2.4-0.7C468,253,468.4,254.5,469.4,254.9z"></path><path d="M468.4,285.2c-1,0.4-1.8,1.1-2.6,1.7c-1.1,0.1-1.8,1.3-1.2,2.3c0.5,0.9,2.2,1.1,2.7,0c0,0,0,0,0-0.1   c0.8-0.5,1.8-0.9,2.4-1.6c0.4-0.5,0.5-1.1,0.2-1.7C469.7,285.3,469,284.9,468.4,285.2z"></path><path d="M501.8,254.1c0.7-1,1.5-2.1,2-3.2c0.9-0.6,1.1-2,0-2.7c-1.1-0.6-2.1,0.1-2.3,1.1c-0.8,1-1.5,2.3-2.1,3.4   C498.6,254.3,500.9,255.6,501.8,254.1z"></path><path d="M491.5,253c0.8,0.2,1.6-0.3,1.8-1c0.3-1.1,0.3-2.4,0.6-3.5c0.9-0.9,0.3-2.5-0.9-2.6   c-1.2-0.1-1.9,0.9-1.7,2c-0.1,0.5-0.3,1.1-0.4,1.6c-0.1,0.6-0.3,1.2-0.4,1.8C490.4,252.1,490.7,252.8,491.5,253z"></path><path d="M480.3,251.1c0.2,0.8,0.3,1.5,0.7,2.3c0.5,1.3,2.7,0.6,2.6-0.7c-0.1-0.8-0.3-1.6-0.5-2.4   c-0.2-0.7-0.6-1.6-0.5-2.3c0.1-1-1.1-1.8-2-1.5c-0.9,0.3-1.5,1.4-0.9,2.3C480,249.4,480.1,250.5,480.3,251.1z"></path><path d="M464.1,265.2c0.4,0.1,0.8,0.2,1.3,0.3c0.6,0.2,1.3,0.2,1.8,0.4c1.8,0.7,2.6-2.7,0.4-2.8   c-0.5,0-1.1-0.3-1.6-0.3c-0.4-0.1-0.9-0.2-1.3-0.2c-0.8-0.8-2.3-0.4-2.6,0.7C461.7,264.4,463,265.7,464.1,265.2z"></path><path d="M465.7,273.2c-1.2,0.2-2.4,0.7-3.6,1c-1-0.2-2.1,0.5-1.9,1.7c0.2,1.1,1.7,1.9,2.6,0.9   c1.2-0.3,2.5-0.4,3.7-0.8C468.4,275.5,467.6,272.9,465.7,273.2z"></path><path d="M511.1,295.9c-0.8-1-1.8-2-2.7-2.9c-1.3-1.4-3.4,0.7-2.1,2.1c0.9,0.9,1.7,2,2.7,2.8   c0.3,0.9,1.5,1.4,2.4,0.7C512.5,297.8,512.1,296.3,511.1,295.9z"></path><path d="M512.2,265.6c1-0.4,1.8-1.1,2.6-1.7c1.1-0.1,1.8-1.3,1.2-2.3c-0.5-0.9-2.2-1.1-2.7,0c0,0,0,0,0,0.1   c-0.8,0.5-1.8,0.9-2.4,1.6c-0.4,0.5-0.5,1.1-0.2,1.7C510.9,265.5,511.6,265.8,512.2,265.6z"></path><path d="M478.7,296.7c-0.7,1-1.5,2.1-2,3.2c-0.9,0.6-1.1,2,0,2.7c1.1,0.6,2.1-0.1,2.3-1.1c0.8-1,1.5-2.3,2.1-3.4   C482,296.5,479.7,295.2,478.7,296.7z"></path><path d="M489,297.7c-0.8-0.2-1.6,0.3-1.8,1c-0.3,1.1-0.3,2.4-0.6,3.5c-0.9,0.9-0.3,2.5,0.9,2.6   c1.2,0.1,1.9-0.9,1.7-2c0.1-0.5,0.3-1.1,0.4-1.6c0.1-0.6,0.3-1.2,0.4-1.8C490.1,298.7,489.8,298,489,297.7z"></path><path d="M500.3,299.7c-0.2-0.8-0.3-1.5-0.7-2.3c-0.5-1.3-2.7-0.6-2.6,0.7c0.1,0.8,0.3,1.6,0.5,2.4   c0.2,0.7,0.6,1.6,0.5,2.3c-0.1,1,1.1,1.8,2,1.5c0.9-0.3,1.5-1.4,0.9-2.3C500.5,301.4,500.4,300.3,500.3,299.7z"></path><path d="M516.5,285.6c-0.4-0.1-0.8-0.2-1.3-0.3c-0.6-0.2-1.3-0.2-1.8-0.4c-1.8-0.7-2.6,2.7-0.4,2.8   c0.5,0,1.1,0.3,1.6,0.3c0.4,0.1,0.9,0.2,1.3,0.2c0.8,0.8,2.3,0.4,2.6-0.7C518.8,286.4,517.6,285.1,516.5,285.6z"></path><path d="M517.7,274c-1.2,0.3-2.5,0.4-3.7,0.8c-1.8,0.5-1.1,3.2,0.8,2.8c1.2-0.2,2.4-0.7,3.6-1   c1,0.2,2.1-0.5,1.9-1.7C520.1,273.8,518.6,273,517.7,274z"></path></g><g xmlns="http://www.w3.org/2000/svg"><path d="M850.8,273.5c-0.3-9.5-0.3-19.2-1.1-28.7c-0.5-5.9-1.4-16.5-9.5-15.3c-13.6,1.2-27.1,0.7-40.7,0.4   c-6.6-0.1-13.3-0.3-19.9-0.3c-6.1,0-12.7-0.1-18.8,1.4c-0.4-0.3-1-0.5-1.7-0.1c-6.3,2.9-5.4,10.2-5.5,16.1   c-0.1,8-0.1,16.1,0.1,24.1c0.2,7.9,0.6,15.7,1.2,23.6c0.6,7.7,0.8,15.9,2.5,23.4c0.1,0.4,0.3,0.7,0.6,0.9c2.9,4.4,8.9,3.3,13.5,2.6   c7.5-1.1,15.1-0.8,22.7-1.1c15.1-0.5,30.2-1.1,45.3-1.6c0.4,0,0.7-0.1,0.9-0.2c0.2,0,0.4,0.1,0.6,0c3-0.4,7.4-0.8,9.1-3.8   c0.8-1.4,0.7-3.1,0.8-4.7c0.1-2.4,0.1-4.8,0.2-7.2C851.2,293.1,851.1,283.3,850.8,273.5z M847,296.7c0,3.8-0.1,7.6-0.2,11.4   c0,1.2,0.3,3.5-0.3,4.6c-0.8,1.5-4.1,1.7-5.6,1.9c-0.2,0-0.5,0.1-0.7,0.2c-0.3-0.1-0.6-0.2-0.9-0.2c-13.6,0.5-27.1,1-40.7,1.5   c-6.7,0.2-13.3,0.5-19.9,0.9c-3.1,0.2-6.2,0.4-9.3,0.9c-1.9,0.4-7.7,2-9-0.6c-0.2-7-1.5-14.1-2.1-21.1c-0.5-7-0.9-14-1.1-21   c-0.3-7-0.4-14-0.4-21c0-3.4,0-6.8,0-10.3c0-2.4-0.9-10.1,3.1-10.1c0.7,0,1.2-0.4,1.4-0.8c6.2,0.1,12.6-0.7,18.8-0.8   c6.6-0.1,13.3,0.1,19.9,0.4c13,0.5,26.3,1,39.3,0c0.3,0.2,0.7,0.3,1.2,0.1c5.9-2.4,5.7,16.9,5.8,19.8c0.3,7.4,0.5,14.8,0.6,22.2   C847.1,281.9,847.1,289.3,847,296.7z"></path><path d="M806.2,243.3c-12.6-4.5-27.4-2.3-35.8,8.9c-4.3,5.7-6.1,13.1-4.7,20.1c1.6,7.7,6.8,12.7,11.7,18.3   c0,1.8-1.6,4.4-2.5,5.7c-1.3,2-3,3.6-5,4.9c-1,0.6-1,2.4,0.3,2.7c5.6,1,15.4,0.2,18.6-5.5c5.5,3.1,11.6,4.8,17.9,5.5   c6.7,0.7,14.5,0.8,20.9-1.3c13.5-4.4,14.1-22.2,9.3-33.1C831.7,257,818.7,247.8,806.2,243.3z M836.2,283.7   c-0.2,5.5-2.4,12.1-7.8,14.7c-3.1,1.5-6.9,1.7-10.3,1.9c-3.2,0.2-6.3,0.2-9.5,0c-6.8-0.5-13.4-2.4-19.2-6c-1.5-0.9-2.9,0.5-2.8,1.8   c0,0.1-0.1,0.1-0.1,0.2c-0.8,2.5-4.5,3.8-6.8,4.5c-1.7,0.5-3.4,0.7-5.2,0.7c1-0.9,1.9-2,2.7-3.2c0.7-1.1,1.3-2.2,1.8-3.4   c0.5-1.3,0.5-2.9,1.1-4.1c0.5-1,0.1-1.7-0.6-2.1c0,0,0,0,0,0c-9.8-7.1-15-21.1-8.5-32.1c6.4-11,19.9-13.6,31.4-10.2   c11.1,3.3,22.5,10.8,28.8,20.6C834.4,272,836.4,277.8,836.2,283.7z"></path><path d="M797.9,260.8c-0.2-0.4-0.6-0.8-1.2-0.8c-2.3-0.2-4.7-0.1-7.1-0.1c-2.5,0-5.2,0.4-7.6,0   c-1.5-0.2-2.1,1.1-1.7,2.1c0,0,0,0,0,0c0.6,1.8,0.1,4.6,0.1,6.5c0,1.8-0.1,3.6,0.2,5.4c0.1,0.3,0.2,0.5,0.5,0.7   c0.2,0.6,0.8,1,1.7,0.8c1.5-0.4,3.2-0.1,4.7,0c0.9,0,1.9,0,2.8,0c-0.4,1.5-1.8,3.2-2.7,4c-1.4,1.3-3,2.1-4.6,3.2   c-1.4,0.9-0.3,3,1.1,2.6c4.9,1.8,10.3-2.2,13.1-6.1c1.7-2.3,2-5.1,2.3-7.9c0.4-3.3,0.2-6.5-1-9.6   C798.4,261.2,798.2,261,797.9,260.8z M795.9,276.1c-1.4,3.5-4.8,5.9-8.4,6.8c0.9-0.7,1.8-1.6,2.6-2.4c0.7-0.8,1.4-1.8,1.9-2.8   c0.4-0.8,0.5-1.8,0.8-2.6c0.4-0.3,0.5-0.8,0.5-1.2c0.3-1.3-1.4-1.9-2.4-1.4c-1.1,0-2.3,0-3.4,0.1c-1.4,0-3,0.3-4.4,0   c0.1-1.3,0.1-2.7,0-4c0-1.7-0.4-4-0.1-5.8c2.1-0.1,4.5,0.1,6.6,0.1c2.2,0,4.4,0.1,6.6-0.1C797.5,266.9,797.5,272.2,795.9,276.1z"></path><path d="M819.6,260.8c-0.2-0.4-0.6-0.8-1.2-0.8c-2.3-0.2-4.7-0.1-7.1-0.1c-2.5,0-5.2,0.4-7.6,0   c-1.5-0.2-2.1,1.1-1.7,2.1c0,0,0,0,0,0c0.6,1.8,0.1,4.6,0.1,6.5c0,1.8-0.1,3.6,0.2,5.4c0.1,0.3,0.2,0.5,0.5,0.7   c0.2,0.6,0.8,1,1.7,0.8c1.5-0.4,3.2-0.1,4.7,0c0.9,0,1.9,0,2.8,0c-0.4,1.5-1.8,3.2-2.7,4c-1.4,1.3-3,2.1-4.6,3.2   c-1.4,0.9-0.3,3,1.1,2.6c4.9,1.8,10.3-2.2,13.1-6.1c1.7-2.3,2-5.1,2.3-7.9c0.4-3.3,0.2-6.5-1-9.6   C820.1,261.2,819.9,261,819.6,260.8z M817.6,276.1c-1.4,3.5-4.8,5.9-8.4,6.8c0.9-0.7,1.8-1.6,2.6-2.4c0.7-0.8,1.4-1.8,1.9-2.8   c0.4-0.8,0.5-1.8,0.8-2.6c0.4-0.3,0.5-0.8,0.5-1.2c0.3-1.3-1.4-1.9-2.4-1.4c-1.1,0-2.3,0-3.4,0.1c-1.4,0-3,0.3-4.4,0   c0.1-1.3,0.1-2.7,0-4c0-1.7-0.4-4-0.1-5.8c2.1-0.1,4.5,0.1,6.6,0.1c2.2,0,4.4,0.1,6.6-0.1C819.2,266.9,819.2,272.2,817.6,276.1z"></path></g><g xmlns="http://www.w3.org/2000/svg"><path d="M1162.2,270.9c-0.3-9.5-0.3-19.2-1.1-28.7c-0.5-5.9-1.4-16.5-9.5-15.3c-13.6,1.2-27.1,0.7-40.7,0.4   c-6.6-0.1-13.3-0.3-19.9-0.3c-6.1,0-12.7-0.1-18.8,1.4c-0.4-0.3-1-0.5-1.7-0.1c-6.3,2.9-5.4,10.2-5.5,16.1   c-0.1,8-0.1,16.1,0.1,24.1c0.2,7.9,0.6,15.7,1.2,23.6c0.6,7.7,0.8,15.9,2.5,23.4c0.1,0.4,0.3,0.7,0.6,0.9c2.9,4.4,8.9,3.3,13.5,2.6   c7.5-1.1,15.1-0.8,22.7-1.1c15.1-0.5,30.2-1.1,45.3-1.6c0.4,0,0.7-0.1,0.9-0.2c0.2,0,0.4,0.1,0.6,0c3-0.4,7.4-0.8,9.1-3.8   c0.8-1.4,0.7-3.1,0.8-4.7c0.1-2.4,0.1-4.8,0.2-7.2C1162.5,290.5,1162.5,280.7,1162.2,270.9z M1158.4,294.1c0,3.8-0.1,7.6-0.2,11.4   c0,1.2,0.3,3.5-0.3,4.6c-0.8,1.5-4.1,1.7-5.6,1.9c-0.2,0-0.5,0.1-0.7,0.2c-0.3-0.1-0.6-0.2-0.9-0.2c-13.6,0.5-27.1,1-40.7,1.5   c-6.7,0.2-13.3,0.5-19.9,0.9c-3.1,0.2-6.2,0.4-9.3,0.9c-1.9,0.4-7.7,2-9-0.6c-0.2-7-1.5-14.1-2.1-21.1c-0.5-7-0.9-14-1.1-21   c-0.3-7-0.4-14-0.4-21c0-3.4,0-6.8,0-10.3c0-2.4-0.9-10.1,3.1-10.1c0.7,0,1.2-0.4,1.4-0.8c6.2,0.1,12.6-0.7,18.8-0.8   c6.6-0.1,13.3,0.1,19.9,0.4c13,0.5,26.3,1,39.3,0c0.3,0.2,0.7,0.3,1.2,0.1c5.9-2.4,5.7,16.9,5.8,19.8c0.3,7.4,0.5,14.8,0.6,22.2   C1158.4,279.3,1158.5,286.7,1158.4,294.1z"></path><path d="M1150.1,262.2c-1.9-5.1-4.5-9.7-8.3-13.9c-4.9-5.4-11.2-9.5-18.2-11.6c-15.7-4.7-34,0.9-42.2,15.6   c-7.7,13.7-4.7,32.4,4.8,44.5c10.3,13.1,28.5,16,43.5,9.7c16.6-7.1,26.9-25.6,21.2-43.3C1150.7,262.8,1150.4,262.4,1150.1,262.2z    M1132.8,300.5c-12.5,7.6-29.9,7.7-40.9-2.7c-10-9.6-14-25.9-9.4-39c5-14.5,20.9-21.9,35.5-19.5c12.5,2,24.9,11.4,29.5,23.5   c-0.2,0.4-0.3,0.9-0.2,1.4C1151.3,278.1,1145,293,1132.8,300.5z"></path><path d="M1110.4,246.6c0,0.5,0,1,0.2,1.5c0.1,0.6,0.5,0.9,0.9,1.1c0.3,0.3,0.7,0.5,1.1,0.5c0.7,0,1.5-0.5,1.6-1.2   c0.2-1.4,0.2-2.9,0.2-4.4c0-0.9-0.7-1.6-1.5-1.7c-0.5-0.1-0.9,0.1-1.2,0.3c-0.3,0-0.6,0.1-0.9,0.3c-0.4,0.3-0.7,1-0.6,1.5   C1110.1,245.2,1110.1,245.9,1110.4,246.6z"></path><path d="M1087.3,272C1087.3,271.9,1087.3,271.9,1087.3,272c-1.1-0.3-2.1-0.2-3.1,0c-0.4,0.1-0.8,0.4-1,0.7   c-0.3,0.3-0.5,0.6-0.5,1c-0.1,0.8,0.4,1.8,1.3,1.9c0.6,0.1,1.3,0.2,1.9,0.2c0.1,0,0.9-0.1,0.8-0.1c0.2,0,0.5-0.1,0.7-0.1   c0.1,0,0.2,0,0.3-0.1c1.1-0.1,1.9-0.9,1.8-2C1089.4,272.5,1088.4,271.7,1087.3,272z"></path><path d="M1086,275.8C1086,275.8,1086,275.8,1086,275.8C1085.9,275.8,1086,275.8,1086,275.8z"></path><path d="M1144.8,270.8c-0.4-0.2-0.9-0.2-1.3-0.2c-0.8-0.1-1.6-0.1-2.4,0.1c-0.8,0.2-1.3,1-1.3,1.8   c0,0.9,0.6,1.5,1.3,1.8c0.4,0.1,0.8,0.2,1.2,0.2c0.2,0,0.3,0,0.4-0.1c0.1,0,0.3,0.1,0.4,0.1c0.2,0,0.4,0.1,0.6,0.1   c0.4-0.1,0.5-0.1,0.4-0.1c0.1,0,0.3,0,0.4,0c0.8-0.1,1.4-0.5,1.6-1.2c0.2-0.3,0.3-0.7,0.3-1.1   C1146.3,271.3,1145.6,270.7,1144.8,270.8z"></path><path d="M1144.1,274.4c-0.1,0-0.1,0-0.2,0C1144,274.4,1144.1,274.4,1144.1,274.4z"></path><path d="M1116.3,296.4c-1,0-1.7,0.8-1.8,1.8c0,0,0,0.1,0,0.1c0,0.1,0,0.2,0,0.2c-0.1,0.6-0.1,1.3-0.1,1.9   c0,0.3-0.1,0.6,0,0.9c0,0,0,0.1,0,0.1h0c0,0.2,0,0.3,0.1,0.5c0.1,0.9,1.2,1.4,2,1.3c0.9-0.1,1.5-0.9,1.6-1.8c0,0,0-0.1,0-0.1   c0-0.1,0.1-0.2,0.1-0.4c0.1-0.7,0-1.3,0-2c0-0.3,0-0.6,0-0.9C1118.2,297.2,1117.3,296.4,1116.3,296.4z"></path><path d="M1090.1,259.2C1090.1,259.2,1090.1,259.2,1090.1,259.2c-0.5-0.3-1.4-0.2-1.8,0.2   c-0.4,0.5-0.6,1.2-0.2,1.8c0,0,0,0,0,0c0.4,1,1.7,1.3,2.6,0.5C1091.4,261,1091.1,259.6,1090.1,259.2z"></path><path d="M1098.4,248.7c-2,0-2,3.1,0,3.1C1100.4,251.8,1100.4,248.7,1098.4,248.7z"></path><path d="M1125.4,251.2c0.2,0.3,0.4,0.5,0.7,0.6c0.3,0.1,0.7,0.2,1,0.1c0.6-0.2,1.2-0.8,1.1-1.5   c0-0.6-0.4-1.2-1-1.4c-0.3-0.1-0.7-0.2-1-0.1c-0.4,0.1-0.7,0.4-0.9,0.7c0,0,0,0-0.1,0.1C1125.1,250,1125.1,250.7,1125.4,251.2   C1125.4,251.1,1125.4,251.2,1125.4,251.2z"></path><path d="M1137.4,258.4c-2,0-2,3.1,0,3.1C1139.4,261.5,1139.4,258.4,1137.4,258.4z"></path><path d="M1137.2,283.2c-0.8,0-1.6,0.7-1.6,1.6c0,0.8,0.7,1.6,1.6,1.6c0.8,0,1.6-0.7,1.6-1.6   C1138.7,283.9,1138.1,283.2,1137.2,283.2z"></path><path d="M1128.9,292.7c-2,0-2,3.1,0,3.1C1130.9,295.9,1130.9,292.7,1128.9,292.7z"></path><path d="M1090.8,285c-0.1,0.3-0.1,0.6,0,1c0.1,0.4,0.6,0.9,1,1c0.3,0,0.6,0.1,1,0c1.1-0.3,1.5-1.8,0.7-2.6   C1092.5,283.5,1091.1,283.9,1090.8,285z"></path><path d="M1102,292.6c-2,0-2,3.1,0,3.1C1104,295.7,1104,292.6,1102,292.6z"></path><path d="M1126.5,261.1c-2.9,1.7-5.4,4.2-8,6.4c-1.5,1.3-3.8,2.8-5.2,4.6c-1.1-0.8-2-1.9-2.9-2.7   c-1.3-1.1-2.2-2.5-3.5-3.6c-1.4-1.2-3.4,0.3-2.6,2c0.8,1.7,2.4,3,3.8,4.3c1.2,1.2,2.8,1.8,4.2,2.7c0.1,0.5,0.5,1,1.1,1   c0.1,0,0.2,0,0.3,0c0.6,0.2,1.2,0,1.5-0.5c2-0.9,3.8-3,5.5-4.3c2.7-2.2,5.8-4.3,8.3-6.7C1130.5,262.6,1128.5,259.9,1126.5,261.1z"></path></g><g xmlns="http://www.w3.org/2000/svg"><path d="M749.3,378.4c-0.3-9.5-0.3-19.2-1.1-28.7c-0.5-5.9-1.4-16.5-9.5-15.3c-13.6,1.2-27.1,0.7-40.7,0.4   c-6.6-0.1-13.3-0.3-19.9-0.3c-6.1,0-12.7-0.1-18.8,1.4c-0.4-0.3-1-0.5-1.7-0.1c-6.3,2.9-5.4,10.2-5.5,16.1   c-0.1,8-0.1,16.1,0.1,24.1c0.2,7.9,0.6,15.7,1.2,23.6c0.6,7.7,0.8,15.9,2.5,23.4c0.1,0.4,0.3,0.7,0.6,0.9c2.9,4.4,8.9,3.3,13.5,2.6   c7.5-1.1,15.1-0.8,22.7-1.1c15.1-0.5,30.2-1.1,45.3-1.6c0.4,0,0.7-0.1,0.9-0.2c0.2,0,0.4,0.1,0.6,0c3-0.4,7.4-0.8,9.1-3.8   c0.8-1.4,0.7-3.1,0.8-4.7c0.1-2.4,0.1-4.8,0.2-7.2C749.6,398,749.5,388.2,749.3,378.4z M745.5,401.6c0,3.8-0.1,7.6-0.2,11.4   c0,1.2,0.3,3.5-0.3,4.6c-0.8,1.5-4.1,1.7-5.6,1.9c-0.2,0-0.5,0.1-0.7,0.2c-0.3-0.1-0.6-0.2-0.9-0.2c-13.6,0.5-27.1,1-40.7,1.5   c-6.7,0.2-13.3,0.5-19.9,0.9c-3.1,0.2-6.2,0.4-9.3,0.9c-1.9,0.4-7.7,2-9-0.6c-0.2-7-1.5-14.1-2.1-21.1c-0.5-7-0.9-14-1.1-21   c-0.3-7-0.4-14-0.4-21c0-3.4,0-6.8,0-10.3c0-2.4-0.9-10.1,3.1-10.1c0.7,0,1.2-0.4,1.4-0.8c6.2,0.1,12.6-0.7,18.8-0.8   c6.6-0.1,13.3,0.1,19.9,0.4c13,0.5,26.3,1,39.3,0c0.3,0.2,0.7,0.3,1.2,0.1c5.9-2.4,5.7,16.9,5.8,19.8c0.3,7.4,0.5,14.8,0.6,22.2   C745.5,386.8,745.6,394.2,745.5,401.6z"></path><path d="M722.7,372.3c0-4.3-0.1-8.7-0.1-13c0-4.4-0.6-9.1-0.2-13.5c0.2-1.9-2.8-2-3.1-0.4   c-5.6,2.1-11.1,4.4-16.6,6.6c-2.7,1.1-5.4,2.2-8.1,3.3c-2.7,1.1-5.8,2.7-8.7,3.1c-0.9,0.1-1.2,0.8-1.1,1.5   c-0.1,0.2-0.1,0.4-0.1,0.7c0.5,6.5,0,13.2,0,19.8c0,6.1-0.6,12.6,0,18.7c-3.8,1.7-8.2,1.4-11.2,5c-2.4,2.9-2.7,7.1,0.2,9.7   c6.2,5.8,16.8,1.7,19.3-5.7c0.2-0.5,0.1-0.9-0.2-1.3c0.1-10.7,0.1-21.4,0.1-32.1c0,0,0.1,0,0.1-0.1c1.7-1.1,4-1.5,5.9-2.1   c1.8-0.6,3.6-1.2,5.4-1.9c3-1.1,6.1-2.1,9.1-3.2c0.2,8.3-1,16.8-0.1,25.1c-0.8,1.2-3.5,1.5-4.8,2c-1.6,0.6-3,1.4-4,2.8   c-2.1,2.9-1.6,6.9,0.8,9.4c6.1,6.2,15.8,0.3,17-7.2c0,0,0,0,0,0c0.1-0.2,0.2-0.5,0.3-0.8c0.4-4.5,0.2-9,0.2-13.5   C722.7,381,722.7,376.6,722.7,372.3z M719.2,398.3c-0.1,0.1-0.1,0.2-0.2,0.4c-0.9,2.6-1.9,5.1-4.5,6.4c-2.6,1.4-6.3,0.9-7.6-1.9   c-1.4-2.9,0.8-5,3.3-5.9c2-0.7,3.4-1.5,5.2-2.7c0.5-0.3,0.7-0.7,0.8-1.1c0-0.1,0-0.2,0.1-0.3c1.1-9.2-0.4-18.7,0.1-27.9   c0-0.9-0.6-1.4-1.3-1.5c-0.3-0.1-0.6-0.1-1,0c-3.5,1.4-7.1,2.7-10.6,4c-1.6,0.6-3.2,1.1-4.9,1.7c-2,0.7-4.4,2.1-6.4,2.1   c-0.3,0-0.6,0.1-0.8,0.2c0,0,0,0-0.1,0c-0.8,0-1.6,0.7-1.6,1.6c0,0.1,0,0.3,0.1,0.4c0,0.1-0.1,0.3-0.1,0.5c0,10.8,0,21.7,0.1,32.6   c-1.2,2.3-2.9,4.3-5.4,5.3c-2.4,0.9-6.2,1-8.2-1c-5.2-5,7.2-8.7,10.2-9.5c0.5-0.1,0.8-0.5,1-0.8c0.1-0.2,0.2-0.4,0.2-0.7   c0.8-6.4,0.1-13.3,0.1-19.8c0-6.5-0.5-13.1,0-19.6c2.4-1.4,5.5-2.2,8-3.1c2.7-1,5.5-2,8.2-3c5.2-1.9,10.3-3.8,15.5-5.8   c0,3.5-0.3,7-0.3,10.5c0,4.3-0.1,8.7-0.1,13c0,4.3,0,8.7,0,13C719.1,389.6,718.8,394,719.2,398.3z"></path></g><g xmlns="http://www.w3.org/2000/svg"><path d="M98.7,47.6c-0.3-9.5-0.3-19.2-1.1-28.7C97.2,13,96.3,2.4,88.2,3.6C74.5,4.8,61.1,4.3,47.4,4   c-6.6-0.1-13.3-0.3-19.9-0.3c-6.1,0-12.7-0.1-18.8,1.4C8.4,4.7,7.8,4.6,7.1,5C0.8,7.8,1.7,15.1,1.6,21.1c-0.1,8-0.1,16.1,0.1,24.1   c0.2,7.9,0.6,15.7,1.2,23.6c0.6,7.7,0.8,15.9,2.5,23.4c0.1,0.4,0.3,0.7,0.6,0.9c2.9,4.4,8.9,3.3,13.5,2.6   c7.5-1.1,15.1-0.8,22.7-1.1c15.1-0.5,30.2-1.1,45.3-1.6c0.4,0,0.7-0.1,0.9-0.2c0.2,0,0.4,0.1,0.6,0c3-0.4,7.4-0.8,9.1-3.8   c0.8-1.4,0.7-3.1,0.8-4.7c0.1-2.4,0.1-4.8,0.2-7.2C99.1,67.2,99,57.4,98.7,47.6z M95,70.8c0,3.8-0.1,7.6-0.2,11.4   c0,1.2,0.3,3.5-0.3,4.6c-0.8,1.5-4.1,1.7-5.6,1.9c-0.2,0-0.5,0.1-0.7,0.2c-0.3-0.1-0.6-0.2-0.9-0.2c-13.6,0.5-27.1,1-40.7,1.5   c-6.7,0.2-13.3,0.5-19.9,0.9c-3.1,0.2-6.2,0.4-9.3,0.9c-1.9,0.4-7.7,2-9-0.6c-0.2-7-1.5-14.1-2.1-21.1c-0.5-7-0.9-14-1.1-21   c-0.3-7-0.4-14-0.4-21c0-3.4,0-6.8,0-10.3c0-2.4-0.9-10.1,3.1-10.1C8.6,7.9,9,7.5,9.2,7C15.5,7.1,21.8,6.3,28,6.2   c6.6-0.1,13.3,0.1,19.9,0.4c13,0.5,26.3,1,39.3,0c0.3,0.2,0.7,0.3,1.2,0.1c5.9-2.4,5.7,16.9,5.8,19.8c0.3,7.4,0.5,14.8,0.6,22.2   C95,56,95,63.4,95,70.8z"></path><path d="M74.8,15.9c-2.5,0.2-5,1.2-6.9,2.7c-1.2,0.9-2.3,2.1-3.2,3.3c-0.5,0.7-1,1.6-1.4,2.4   c-1.5-1.7-2.9-3.5-5-4.7c-2.4-1.4-5-2.2-7.8-2.1c-5.7,0.2-10.2,4.2-10.7,10c-0.5,6.3,3.6,12.2,8,16.3c5.2,4.9,11.6,8.1,18,11.1   c0.5,0.8,1.7,1.2,2.6,0.3c5.1-4.6,9.6-9.9,13.5-15.5c3.2-4.7,5.7-10.3,3.9-16C84.1,18.9,80,15.5,74.8,15.9z M82.6,28.8   c-0.4,4.8-3.9,9.2-6.8,12.9c-2.7,3.5-5.7,6.8-8.7,10c-8.6-4.2-18.4-9-22.5-18.2c-2.2-4.8-1.4-11.1,4.4-12.6   c4.4-1.2,10.6,1.7,12.6,6c-0.9,1.9,2.4,3.2,3.1,1.5c0.5-0.4,0.8-1.1,0.5-1.8c1.5-4,6.5-7.6,10.5-7.3C80.3,19.7,82.9,24.4,82.6,28.8   z"></path></g></g><g id="SvgjsG2107" featurekey="nameFeature-0" transform="matrix(1.446854817843113,0,0,1.446854817843113,-0.4629931001647468,49.10073666587567)" fill="url(#SvgjsLinearGradient2110)"><path d="M0.32 16 l0 -4 l13.6 0 l0 4 l-4.6 0 l0 24 l-4.4 0 l0 -24 l-4.6 0 z M24.568 28 l0 12 l-4.4 0 l0 -28 l4.4 0 l0 12 l5 0 l0 -12 l4.48 0 l0 28 l-4.48 0 l0 -12 l-5 0 z M45.976 16 l0 7.8 l6.04 0 l0 4 l-6.04 0 l0 8.2 l7.6 0 l0 4 l-12 0 l0 -28 l12 0 l0 4 l-7.6 0 z M71.152 40 l0 -28 l6.96 0 c4.4 0 6.56 2.44 6.56 6.92 l0 14.16 c0 4.48 -2.16 6.92 -6.56 6.92 l-6.96 0 z M78.03200000000001 16 l-2.48 0 l0 20 l2.48 0 c1.4 0 2.24 -0.72 2.24 -2.72 l0 -14.56 c0 -2 -0.84 -2.72 -2.24 -2.72 z M91.8 40 l0 -28 l4.4 0 l0 28 l-4.4 0 z M103.168 18.72 c0 -4.48 2.2 -7.04 6.48 -7.04 s6.48 2.56 6.48 7.04 l0 0.88 l-4.16 0 l0 -1.16 c0 -2 -0.8 -2.76 -2.2 -2.76 s-2.2 0.76 -2.2 2.76 c0 2.04 0.88 3.56 3.76 6.08 c3.68 3.24 4.84 5.56 4.84 8.76 c0 4.48 -2.24 7.04 -6.56 7.04 s-6.56 -2.56 -6.56 -7.04 l0 -1.72 l4.16 0 l0 2 c0 2 0.88 2.72 2.28 2.72 s2.28 -0.72 2.28 -2.72 c0 -2.04 -0.88 -3.56 -3.76 -6.08 c-3.68 -3.24 -4.84 -5.56 -4.84 -8.76 z M127.416 28 l0 12 l-4.4 0 l0 -28 l4.4 0 l0 12 l5 0 l0 -12 l4.48 0 l0 28 l-4.48 0 l0 -12 l-5 0 z M154.952 40 l0 -28 l6.96 0 c4.4 0 6.56 2.44 6.56 6.92 l0 14.16 c0 4.48 -2.16 6.92 -6.56 6.92 l-6.96 0 z M161.832 16 l-2.48 0 l0 20 l2.48 0 c1.4 0 2.24 -0.72 2.24 -2.72 l0 -14.56 c0 -2 -0.84 -2.72 -2.24 -2.72 z M175.6 40 l0 -28 l4.4 0 l0 28 l-4.4 0 z M197.288 12 l4.48 28 l-4.44 0 l-0.76 -5.08 l-5.4 0 l-0.76 5.08 l-4.04 0 l4.48 -28 l6.44 0 z M193.808 16.96 l-2.08 14.16 l4.24 0 l-2.08 -14.16 l-0.08 0 z M221.816 40 l-4.48 0 c-0.24 -0.72 -0.4 -1.16 -0.4 -3.44 l0 -4.4 c0 -2.6 -0.88 -3.56 -2.88 -3.56 l-1.52 0 l0 11.4 l-4.4 0 l0 -28 l6.64 0 c4.56 0 6.52 2.12 6.52 6.44 l0 2.2 c0 2.88 -0.92 4.72 -2.88 5.64 l0 0.08 c2.2 0.92 2.92 3 2.92 5.92 l0 4.32 c0 1.36 0.04 2.36 0.48 3.4 z M214.656 16 l-2.12 0 l0 8.6 l1.72 0 c1.64 0 2.64 -0.72 2.64 -2.96 l0 -2.76 c0 -2 -0.68 -2.88 -2.24 -2.88 z M232.264 40 l0 -9.28 l-5.56 -18.72 l4.6 0 l3.32 12.76 l0.08 0 l3.32 -12.76 l4.2 0 l-5.56 18.72 l0 9.28 l-4.4 0 z"></path></g></svg>